<?xml version="1.0" encoding="UTF-8"?>
<svg id="OBJECTS" xmlns="http://www.w3.org/2000/svg" viewBox="0 0 500 500">
  <defs>
    <style>
      .cls-1 {
        fill: #f9fbfc;
      }

      .cls-2 {
        fill: #dce8ef;
      }
    </style>
  </defs>
  <path class="cls-2" d="M357.45,238.98c-1.59,1.73-3.74,2.75-5.99,2.93-.94,3.05-2.93,5.75-5.71,7.55-3.48,2.26-7.72,2.82-11.58,1.65-2.91,3.24-6.96,5.38-11.46,5.87-5.1.54-10.07-1.12-13.78-4.39-1.17,1.7-2.65,3.19-4.39,4.4-1.92,1.33-4.07,2.23-6.29,2.7-.37,4.85-2.32,9.57-5.74,13.35-5.55,6.14-13.97,8.65-21.85,6.77-2.38,3.59-6.2,6.09-10.6,6.76-5.5.84-10.98-1.31-14.43-5.55-4.87,3.93-11.26,5.59-17.52,4.4-7.41-1.4-13.53-6.54-16.19-13.56-6.57,4.06-14.22,6.22-22.09,6.11-10.89-.16-21.25-4.66-28.8-12.47-2.9,1.9-6.38,2.88-9.96,2.67-4.2-.24-8.06-2.08-10.88-5.01-2.56.47-5.24.07-7.61-1.23-3.93-2.16-6.27-6.4-5.98-10.88.05-.82.19-1.61.4-2.38.8,2.93,2.74,5.49,5.46,7.04,3.28,1.86,7.2,2.02,10.56.5,2.42,3.2,6.26,5.05,10.31,4.91,3.5-.13,6.74-1.72,8.97-4.31,4,5.2,10.71,7.66,17.19,6.18,5.36-1.22,9.7-4.93,11.81-9.81,2.14,3.5,5.93,5.79,10.18,5.93,3.72.13,7.2-1.4,9.61-4.02,4.68,5.07,12.31,6.62,18.75,3.4,5.41-2.7,8.64-8.09,8.78-13.79,5.88,8.26,16.09,12.62,26.37,10.81,10.45-1.84,18.65-9.64,21.21-19.64,2.68,3.5,7.02,5.45,11.54,5.01,4.42-.43,8.23-3.07,10.23-6.87,1.94,2.89,5.05,4.83,8.58,5.27,2.86.36,5.71-.3,8.08-1.81,1.97,1.96,4.77,2.92,7.59,2.51,2.17-.31,4.11-1.4,5.49-3.01,2.18,1.45,4.89,1.93,7.46,1.26,1.94-.51,3.64-1.63,4.86-3.15,1.19.27,2.45.19,3.62-.23,1.74-.64,3.13-1.99,3.8-3.72.57-1.45.58-3.04.07-4.49.57.63,1.06,1.35,1.44,2.15,1.63,3.38,1.03,7.42-1.51,10.19Z"/>
  <path class="cls-1" d="M357.45,231.13c-.67,1.73-2.06,3.08-3.8,3.72-1.17.42-2.43.5-3.62.23-1.22,1.52-2.92,2.64-4.86,3.15-2.57.67-5.28.19-7.46-1.26-1.38,1.61-3.32,2.7-5.49,3.01-2.82.41-5.62-.55-7.59-2.51-2.37,1.51-5.22,2.17-8.08,1.81-3.53-.44-6.64-2.38-8.58-5.27-2,3.8-5.81,6.44-10.23,6.87-4.52.44-8.86-1.51-11.54-5.01-2.56,10-10.76,17.8-21.21,19.64-10.28,1.81-20.49-2.55-26.37-10.81-.14,5.7-3.37,11.09-8.78,13.79-6.44,3.22-14.07,1.67-18.75-3.4-2.41,2.62-5.89,4.15-9.61,4.02-4.25-.14-8.04-2.43-10.18-5.93-2.11,4.88-6.45,8.59-11.81,9.81-6.48,1.48-13.19-.98-17.19-6.18-2.23,2.59-5.47,4.18-8.97,4.31-4.05.14-7.89-1.71-10.31-4.91-3.36,1.52-7.28,1.36-10.56-.5-2.72-1.55-4.66-4.11-5.46-7.04.96-3.45,3.5-6.31,6.92-7.65,3.71-1.46,7.87-.9,11.03,1.41,1.09-3.66,3.91-6.69,7.72-7.96,1.62-.54,3.28-.71,4.89-.55.34-6.74,4.24-13,10.54-16.19,5.09-2.57,10.87-2.68,15.88-.67.7-2.99,2.43-5.69,4.98-7.57,1.85-1.37,3.99-2.2,6.19-2.47,1.37-14.48,12.39-26.56,27.18-28.91,12.86-2.03,25.28,3.82,32.09,14.17,5.78-3.63,13.1-4.27,19.55-1.43,5.04,2.22,8.87,6.27,10.89,11.14,6.19-2,12.95-1.82,19.13.64,6.67,2.67,12.02,7.75,15.04,14.12,3.15-.82,6.55-.59,9.66.76,3.84,1.68,6.73,4.86,8.07,8.68,2.45-.66,5.03-.64,7.47.06,1.53-1.52,3.58-2.48,5.82-2.64,2.87-.2,5.6.95,7.46,3.02h.01c.51,1.46.5,3.05-.07,4.5Z"/>
  <path class="cls-2" d="M185.25,249.48c1.02,1.32,2.12,2.24,3.3,2.84,1.18.6,2.41.88,3.64.87,1.23-.02,2.45-.32,3.61-.95,1.17-.63,2.24-1.57,3.24-2.91.23,1.67-.49,3.48-1.78,4.77-1.29,1.3-3.15,2.08-5.04,2.09-1.88.03-3.77-.71-5.08-1.98-1.32-1.26-2.07-3.05-1.89-4.72Z"/>
  <path class="cls-2" d="M279.5,231.96c1.02,1.32,2.12,2.24,3.3,2.84,1.18.6,2.41.88,3.64.87,1.23-.02,2.45-.32,3.61-.95,1.17-.63,2.24-1.57,3.24-2.91.23,1.67-.49,3.48-1.78,4.77-1.29,1.3-3.15,2.08-5.04,2.09-1.88.03-3.77-.71-5.08-1.98-1.32-1.26-2.07-3.05-1.89-4.72Z"/>
  <path class="cls-2" d="M317.65,233.38c1.02,1.32,2.12,2.24,3.3,2.84,1.18.6,2.41.88,3.64.87,1.23-.02,2.45-.32,3.61-.95,1.17-.63,2.24-1.57,3.24-2.91.23,1.67-.49,3.48-1.78,4.77-1.29,1.3-3.15,2.08-5.04,2.09-1.88.03-3.77-.71-5.08-1.98-1.32-1.26-2.07-3.05-1.89-4.72Z"/>
  <path class="cls-2" d="M223.26,235.53c2.13,2.95,4.51,5.06,7.12,6.46,2.61,1.4,5.39,2.05,8.17,2.02,2.78-.04,5.54-.76,8.11-2.21,2.58-1.45,4.91-3.61,6.99-6.61.37,3.66-1.24,7.55-4.07,10.32-2.82,2.8-6.87,4.47-10.96,4.5-4.09.06-8.17-1.53-11.05-4.26-2.89-2.71-4.59-6.56-4.31-10.22Z"/>
</svg>