<?xml version="1.0" encoding="UTF-8"?>
<svg id="OBJECTS" xmlns="http://www.w3.org/2000/svg" viewBox="0 0 500 500">
  <defs>
    <style>
      .cls-1 {
        fill: #f9fbfc;
      }

      .cls-2 {
        fill: #dce8ef;
      }
    </style>
  </defs>
  <path class="cls-2" d="M362.9,263.21c-3.58,4.34-9.4,6.12-14.8,4.56-3.61-1.05-6.58-3.47-8.35-6.63-2.65,3.73-6.56,6.49-11.13,7.68-5.48,1.42-11.21.42-15.81-2.59-1.98,3.25-5.18,5.74-9.09,6.75-4.8,1.24-9.74.01-13.35-3-3.38,7.78-10.4,13.76-19.22,15.54-11.64,2.36-23.22-3.26-28.73-13.37-3.47,3.96-8.79,6.05-14.26,5.25-6.85-1.01-12.17-6.3-13.33-12.96-4.65,2.68-10.25,3.62-15.72,2.38-7.6-1.72-13.6-7.32-15.94-14.56-3.3,1.39-7.02,1.67-10.58.69-5.66-1.55-10.03-6.04-11.44-11.74-.47-1.93-.58-3.88-.35-5.79,1.83,5.36,6.07,9.66,11.55,11.35,5.39,1.67,11.24.6,15.78-2.7,3.72,5.05,9.57,8.21,15.96,8.48,6.42.27,12.54-2.41,16.68-7.16,2.57,4.54,7.31,7.57,12.68,7.89,4.71.27,9.18-1.59,12.3-4.89,4.47,6.62,11.58,11.17,19.68,12.34,9.05,1.31,18.11-1.77,24.46-8.14,3.28,3.58,7.66,6.05,12.54,6.98,5.3,1.01,10.74.1,15.38-2.49,3.77,2.58,8.37,3.73,12.97,3.17,4.1-.49,7.88-2.3,10.81-5.1,3.24,4.24,8.56,6.34,13.51,5.21,5.13-1.16,9.18-5.62,10.1-11.22,1.82,4.73.98,10.11-2.3,14.07Z"/>
  <path class="cls-1" d="M365.2,249.14c-.92,5.6-4.97,10.06-10.1,11.22-4.95,1.13-10.27-.97-13.51-5.21-2.93,2.8-6.71,4.61-10.81,5.1-4.6.56-9.2-.59-12.97-3.17-4.64,2.59-10.08,3.5-15.38,2.49-4.88-.93-9.26-3.4-12.54-6.98-6.35,6.37-15.41,9.45-24.46,8.14-8.1-1.17-15.21-5.72-19.68-12.34-3.12,3.3-7.59,5.16-12.3,4.89-5.37-.32-10.11-3.35-12.68-7.89-4.14,4.75-10.26,7.43-16.68,7.16-6.39-.27-12.24-3.43-15.96-8.48-4.54,3.3-10.39,4.37-15.78,2.7-5.48-1.69-9.72-5.99-11.55-11.35.44-3.74,2.18-7.26,5.03-9.91,3.8-3.54,9.04-5.02,14.07-4.07.19-2.01.94-3.93,2.17-5.56,1.78-2.35,4.43-3.89,7.36-4.26,2.65-.34,5.31.29,7.51,1.78,2.26-3.97,6.28-6.78,11-7.39,3.1-.4,6.14.18,8.77,1.55,5.08-14.01,19.01-23.17,34.23-21.91,14.32,1.19,25.98,11.29,29.56,24.69,5.69-.81,11.56.83,16.06,4.69,4.03,3.46,6.46,8.29,6.97,13.39,4.98-3.11,11.15-4.02,16.98-2.25,5.26,1.59,9.55,5.16,12.11,9.78,3.91-3.17,9.18-4.41,14.26-3.07,4.51,1.19,8.15,4.22,10.2,8.16,3.2,1.22,5.92,3.6,7.54,6.78.22.43.41.87.58,1.32Z"/>
  <path class="cls-2" d="M284.26,248.96c1.02,1.32,2.12,2.24,3.3,2.84,1.18.6,2.41.88,3.64.87,1.23-.02,2.45-.32,3.61-.95,1.17-.63,2.24-1.57,3.24-2.91.23,1.67-.49,3.48-1.78,4.77-1.29,1.3-3.15,2.08-5.04,2.09-1.88.03-3.77-.71-5.08-1.98-1.32-1.26-2.07-3.05-1.89-4.72Z"/>
  <path class="cls-2" d="M200.95,239.59c-.81,2.29-2.57,4.23-4.73,5.54-2.16,1.31-4.75,1.99-7.33,1.92-2.58-.06-5.13-.87-7.23-2.28-2.09-1.42-3.74-3.44-4.44-5.77,2.03,1.32,3.93,2.31,5.88,2.98,1.95.67,3.91,1.03,5.88,1.08,1.97.05,3.95-.2,5.93-.78,1.99-.57,3.94-1.47,6.02-2.68Z"/>
  <path class="cls-2" d="M229.05,238.48c2.54,3.13,5.27,5.51,8.29,7.16,2.99,1.68,6.22,2.58,9.48,2.81,3.26.19,6.58-.29,9.77-1.54,3.2-1.25,6.23-3.24,9.16-6-.73,4-3.34,7.68-6.88,10.13-3.54,2.47-8.04,3.69-12.44,3.39-4.4-.3-8.7-2.08-11.88-5.02-3.19-2.89-5.29-6.89-5.5-10.94Z"/>
  <path class="cls-2" d="M310.11,249.98c1.19,4.5,4.46,6.74,7.73,6.85,3.27.11,6.67-1.9,8.17-6.31.95,2.16.46,5-1.19,7.06-1.62,2.09-4.37,3.37-7.12,3.24-2.75-.07-5.4-1.54-6.88-3.72-1.51-2.16-1.8-5.02-.71-7.12Z"/>
</svg>