<?xml version="1.0" encoding="UTF-8"?>
<svg id="OBJECTS" xmlns="http://www.w3.org/2000/svg" viewBox="0 0 500 500">
  <defs>
    <style>
      .cls-1 {
        fill: #f9fbfc;
      }

      .cls-2 {
        fill: #dce8ef;
      }
    </style>
  </defs>
  <path class="cls-2" d="M273.03,244.41c-2.01,4.1-6.16,6.73-10.73,6.78-3.35.04-6.51-1.3-8.78-3.63-2.01,2.51-5.23,3.87-8.54,3.45-2.95-.37-5.49-2.09-6.95-4.54-5.13,2.47-11.14,2.69-16.53.47-.41-.17-.81-.35-1.2-.54-3.84,2.55-8.37,4.04-13.15,4.17-8.51.23-16.49-3.89-21.25-10.81-2.48,2.34-6.02,3.33-9.43,2.46-4.29-1.09-7.36-4.85-7.58-9.27-.07-1.47.18-2.9.7-4.2.57,2.4,2.26,4.43,4.63,5.4,2.66,1.09,5.66.62,7.84-1.12,2.39,2.28,5.51,3.67,8.83,3.9,3.12.22,6.2-.59,8.78-2.28,4.17,3.14,9.57,4.28,14.71,3.04,4.5-1.09,8.34-3.89,10.74-7.73,1.66,3.1,4.85,5.14,8.43,5.29,2.54.11,4.96-.76,6.83-2.33.57,2.31,2.35,4.22,4.76,4.85,1.98.52,4.03.09,5.59-1.07,1.1,1.46,2.66,2.53,4.45,3.02,2.18.6,4.5.29,6.45-.86,1.95-1.14,3.35-3.02,3.88-5.22.54-2.19.17-4.51-1.03-6.42,2.86.55,5.48,2.14,7.31,4.55,2.76,3.64,3.24,8.53,1.24,12.64Z"/>
  <path class="cls-1" d="M265.51,233.64c-.53,2.2-1.93,4.08-3.88,5.22-1.95,1.15-4.27,1.46-6.45.86-1.79-.49-3.35-1.56-4.45-3.02-1.56,1.16-3.61,1.59-5.59,1.07-2.41-.63-4.19-2.54-4.76-4.85-1.87,1.57-4.29,2.44-6.83,2.33-3.58-.15-6.77-2.19-8.43-5.29-2.4,3.84-6.24,6.64-10.74,7.73-5.14,1.24-10.54.1-14.71-3.04-2.58,1.69-5.66,2.5-8.78,2.28-3.32-.23-6.44-1.62-8.83-3.9-2.18,1.74-5.18,2.21-7.84,1.12-2.37-.97-4.06-3-4.63-5.4,1.04-2.63,3.16-4.77,5.94-5.77,1.87-.67,3.83-.76,5.67-.34.23-.82.58-1.61,1.05-2.33,1.25-1.94,3.22-3.31,5.49-3.78,2.03-.42,4.14-.09,5.93.9,1.64-4.32,4.92-7.92,9.25-9.93,4.78-2.23,10.23-2.22,14.93-.13,2.76-4.18,7.76-6.59,12.99-5.83,5.54.8,9.83,4.94,11.03,10.15,5.19-1.57,10.87-.67,15.35,2.56,4.26,3.06,6.88,7.84,7.26,12.97,1.2,1.91,1.57,4.23,1.03,6.42Z"/>
  <path class="cls-2" d="M192.73,230.53c1.02,1.32,2.12,2.24,3.3,2.84,1.18.6,2.41.88,3.64.87,1.23-.02,2.45-.32,3.61-.95,1.17-.63,2.24-1.57,3.24-2.91.23,1.67-.49,3.48-1.78,4.77-1.29,1.3-3.15,2.08-5.04,2.09-1.88.03-3.77-.71-5.08-1.98-1.32-1.26-2.07-3.05-1.89-4.72Z"/>
  <path class="cls-2" d="M246.58,232.52c1.02,1.32,2.12,2.24,3.3,2.84,1.18.6,2.41.88,3.64.87,1.23-.02,2.45-.32,3.61-.95,1.17-.63,2.24-1.57,3.24-2.91.23,1.67-.49,3.48-1.78,4.77-1.29,1.3-3.15,2.08-5.04,2.09-1.88.03-3.77-.71-5.08-1.98-1.32-1.26-2.07-3.05-1.89-4.72Z"/>
  <path class="cls-2" d="M237.57,224.44c-.81,2.29-2.57,4.23-4.73,5.54-2.16,1.31-4.75,1.99-7.33,1.92-2.58-.06-5.13-.87-7.23-2.28-2.09-1.42-3.74-3.44-4.44-5.77,2.03,1.32,3.93,2.31,5.88,2.98,1.95.67,3.91,1.03,5.88,1.08,1.97.05,3.95-.2,5.93-.78,1.99-.57,3.94-1.47,6.02-2.68Z"/>
</svg>