<?xml version="1.0" encoding="UTF-8"?>
<svg id="OBJECTS" xmlns="http://www.w3.org/2000/svg" viewBox="0 0 500 500">
  <defs>
    <style>
      .cls-1 {
        fill: #f9fbfc;
      }

      .cls-2 {
        fill: #dce8ef;
      }
    </style>
  </defs>
  <path class="cls-2" d="M448.8,243.06c-.36,6.52-5.02,12-11.4,13.42-5.29,1.18-10.7-.69-14.15-4.66-1.88,1.78-4.25,3.05-6.9,3.57-4.17.83-8.42-.28-11.62-2.88-3.47,4.01-8.33,6.71-13.74,7.47-6.51.92-13.01-1.08-17.84-5.34-1.83,1.94-4.19,3.37-6.87,4.07-4.47,1.18-9.19.14-12.73-2.69-3.13,4.28-7.91,7.22-13.35,7.96-4.23.57-8.44-.24-12.06-2.19-2.57,2.86-5.99,4.93-9.87,5.82-5.05,1.17-10.29.22-14.56-2.5-3.29,6.04-8.33,11.05-14.58,14.29-8.39,4.35-18.14,5.09-27.02,2.13-4.4,6.77-11.43,11.6-19.61,13.14-9.51,1.79-19.18-1.13-26.08-7.62-9.28,7.29-21.37,10.33-33.21,8.06-12.08-2.32-22.37-9.9-28.22-20.47-5.98,3.21-12.86,4.63-19.82,3.91-8.42-.87-16.09-4.79-21.7-10.85-2.63,2.8-6.25,4.57-10.2,4.84-5.69.4-11.14-2.38-14.16-7.21-2.34-3.75-2.93-8.25-1.75-12.39,1.76,5.06,6.18,8.81,11.59,9.65,5.39.83,10.72-1.42,13.92-5.68,2.38,4.02,6.69,6.6,11.47,6.74,4.47.12,8.64-1.92,11.3-5.35,2.72,2.94,6.89,4.28,10.95,3.27,3.37-.84,6.04-3.15,7.43-6.12,7.93,10.96,21.9,16.18,35.33,12.71,11.6-3,20.42-11.87,23.65-22.89,2.99,7.21,9.88,12.41,18.11,12.92,9.25.57,17.55-4.95,20.82-13.21,2.91,9.69,11.52,16.68,21.75,17.43,9.4.68,18.21-4.06,22.9-11.95,3.3,5.01,9.07,7.95,15.18,7.55,5.92-.4,11.11-3.86,13.8-8.97,3.49,3.24,8.33,4.71,13.11,3.87,4.38-.77,8.16-3.37,10.43-7.05,3.18,3.24,8.07,4.35,12.43,2.61,4.18-1.66,6.91-5.56,7.2-9.88,9.95,7.94,24.03,8.24,34.3.79,3.14,4.7,8.5,7.53,14.24,7.42,4.84-.09,9.32-2.26,12.38-5.82,3.13,2.7,7.53,3.57,11.51,2.15,3.03-1.08,5.41-3.33,6.68-6.14.74,1.89,1.08,3.95.96,6.07Z"/>
  <path class="cls-1" d="M447.84,236.99c-1.27,2.81-3.65,5.06-6.68,6.14-3.98,1.42-8.38.55-11.51-2.15-3.06,3.56-7.54,5.73-12.38,5.82-5.74.11-11.1-2.72-14.24-7.42-10.27,7.45-24.35,7.15-34.3-.79-.29,4.32-3.02,8.22-7.2,9.88-4.36,1.74-9.25.63-12.43-2.61-2.27,3.68-6.05,6.28-10.43,7.05-4.78.84-9.62-.63-13.11-3.87-2.69,5.11-7.88,8.57-13.8,8.97-6.11.4-11.88-2.54-15.18-7.55-4.69,7.89-13.5,12.63-22.9,11.95-10.23-.75-18.84-7.74-21.75-17.43-3.27,8.26-11.57,13.78-20.82,13.21-8.23-.51-15.12-5.71-18.11-12.92-3.23,11.02-12.05,19.89-23.65,22.89-13.43,3.47-27.4-1.75-35.33-12.71-1.39,2.97-4.06,5.28-7.43,6.12-4.06,1.01-8.23-.33-10.95-3.27-2.66,3.43-6.83,5.47-11.3,5.35-4.78-.14-9.09-2.72-11.47-6.74-3.2,4.26-8.53,6.51-13.92,5.68-5.41-.84-9.83-4.59-11.59-9.65.33-1.21.82-2.38,1.47-3.5,2.7-4.67,7.62-7.59,12.98-7.71.02-3.32,1.5-6.56,4.25-8.75,3.48-2.77,8.16-3.18,11.98-1.29,1.27-2.02,3.28-3.46,5.61-4,.52-.12,1.05-.2,1.58-.23-.12-.95-.15-1.91-.09-2.88.26-4.18,2.23-8.07,5.44-10.75,3.06-2.55,7-3.8,10.96-3.48-.38-4.52,1.21-9.1,4.55-12.44,2.47-2.48,5.62-4,8.93-4.48,4.52-15.84,18.63-27.45,35.52-28.44,15.87-.93,30.4,7.74,37.37,21.4,3.9-2.39,8.75-3.04,13.29-1.55,5.82,1.9,9.97,6.93,10.84,12.87,7.8-3.44,16.71-3.76,24.82-.75,7.24,2.69,13.22,7.79,17.03,14.32,5.35-4.39,12.57-6.17,19.57-4.5,6.48,1.56,11.78,5.84,14.74,11.51,3.84-4.42,9.4-7.13,15.43-7.31,5.39-.16,10.53,1.73,14.47,5.13,3.26-12.22,14.56-20.9,27.57-20.51,12.52.38,22.95,9.04,25.97,20.73,4.47-.29,8.97.82,12.86,3.25,3.27,2.04,5.88,4.9,7.64,8.22,2.25-.33,4.59-.13,6.85.64,4.17,1.44,7.34,4.63,8.85,8.55Z"/>
  <path class="cls-2" d="M242.44,239.04c1.43,2,3.04,3.44,4.81,4.39,1.77.95,3.66,1.4,5.54,1.38,1.89-.03,3.77-.52,5.51-1.51,1.75-.99,3.32-2.46,4.71-4.49.24,2.47-.86,5.1-2.77,6.97-1.91,1.89-4.65,3.02-7.41,3.03-2.76.04-5.52-1.03-7.47-2.87-1.95-1.83-3.11-4.43-2.93-6.9Z"/>
  <path class="cls-2" d="M203.93,241.09c1.27,1.41,2.51,2.32,3.79,2.9,1.28.58,2.55.83,3.83.82,1.28-.02,2.54-.3,3.81-.91,1.27-.61,2.49-1.54,3.73-2.98.39,1.88-.35,3.96-1.79,5.46-1.43,1.51-3.56,2.42-5.7,2.43-2.15.03-4.29-.84-5.75-2.31-1.46-1.46-2.26-3.53-1.91-5.41Z"/>
  <path class="cls-2" d="M140.89,245.49c2.54,3.13,5.27,5.51,8.29,7.16,2.99,1.68,6.22,2.58,9.48,2.81,3.26.19,6.58-.29,9.77-1.54,3.2-1.25,6.23-3.24,9.16-6-.73,4-3.34,7.68-6.88,10.13-3.54,2.47-8.04,3.69-12.44,3.39-4.4-.3-8.7-2.08-11.88-5.02-3.19-2.89-5.29-6.89-5.5-10.94Z"/>
  <path class="cls-2" d="M308.01,240.82c2.99,2.7,6.04,4.64,9.28,5.81,3.21,1.2,6.54,1.6,9.8,1.34,3.25-.31,6.46-1.29,9.42-3.01,2.97-1.72,5.66-4.15,8.14-7.33-.11,4.06-2.14,8.1-5.26,11.06-3.13,2.98-7.38,4.87-11.78,5.25-4.4.37-8.92-.74-12.5-3.15-3.59-2.37-6.28-6-7.1-9.98Z"/>
  <path class="cls-2" d="M389.74,232.94c2.09,1.97,4.27,3.41,6.6,4.28,2.31.89,4.73,1.2,7.1,1.01,2.36-.22,4.69-.95,6.82-2.22,2.14-1.27,4.05-3.05,5.77-5.35-.14,2.89-1.61,5.75-3.85,7.84-2.24,2.11-5.27,3.44-8.39,3.71-3.12.26-6.34-.51-8.9-2.21-2.57-1.67-4.5-4.23-5.15-7.05Z"/>
</svg>