<?xml version="1.0" encoding="UTF-8"?>
<svg id="Calque_1" xmlns="http://www.w3.org/2000/svg" version="1.1" viewBox="0 0 500 500">
  <!-- Generator: Adobe Illustrator 29.3.1, SVG Export Plug-In . SVG Version: 2.1.0 Build 151)  -->
  <defs>
    <style>
      .st0 {
        fill: #fff;
        stroke: #000;
        stroke-miterlimit: 10;
      }
    </style>
  </defs>
  <path class="st0" d="M431.89,110.12l9.69-.68c.69-.05,1.28.47,1.33,1.15l.93,13.26c.04.53.4.97.9,1.11,2.27.63,8.56,2.46,11.66,4.31.68.41,1.56.12,1.83-.63l2.87-7.99c.22-.62.88-.96,1.51-.78l11.01,3.14c.69.2,1.07.93.83,1.61l-4.1,11.61c-.17.47-.04.99.33,1.33,1.64,1.5,6.15,5.8,7.59,8.93.28.61.99.87,1.6.6,2.23-.97,6.96-3.01,9.24-4,.69-.3,1.47.08,1.68.79l3.92,13.27c.17.59-.11,1.22-.67,1.48l-11.94,5.55c-.55.26-.84.87-.67,1.46.88,3.07,3.13,12.43-.07,17.83-.27.46,2.42,1.74,2.86,2.05,2,1.4,4.25,2.6,5.54,3.25.57.29.75,1.01.38,1.53l-7.47,10.61c-.47.67-1.44.71-1.97.09l-6.16-7.28c-.46-.55-1.29-.59-1.81-.1-2.87,2.77-11.4,10.78-13.18,10.21-1.92-.62-4.86-11.05-5.47-13.29-.07-.27-.05-.55.07-.81.43-.91,1.59-3.33,2.96-6.14,3.53-7.25,3.23-15.78-.8-22.77-.79-1.36-1.47-2.58-1.92-3.46-1.36-2.68-6.8-8.32-10.62-10.1-6.72-3.13-7.58-1.49-7.58-1.49"/>
  <path class="st0" d="M433.88,171.29l8.16,1.88c.58.13.94.71.8,1.29l-2.58,11.17c-.1.44.08.9.47,1.14,1.72,1.09,6.44,4.18,8.53,6.5.46.51,1.26.49,1.67-.06l4.38-5.86c.34-.45.97-.57,1.44-.26l8.29,5.37c.52.34.65,1.04.28,1.54l-6.31,8.54c-.26.35-.28.81-.06,1.18.97,1.65,3.61,6.34,4.01,9.28.08.57.6.96,1.17.9,2.08-.23,6.5-.73,8.63-.97.64-.07,1.19.43,1.19,1.08l-.11,11.93c0,.53-.4.98-.92,1.05l-11.25,1.57c-.52.07-.91.51-.92,1.04-.05,2.75-.55,11.04-4.56,14.69-.34.31,1.56,2.05,1.84,2.41,1.29,1.66,2.85,3.22,3.75,4.08.4.38.36,1.02-.07,1.36l-8.84,6.87c-.55.43-1.37.22-1.64-.42l-3.25-7.55c-.24-.57-.92-.82-1.47-.53-3.07,1.56-12.11,6.01-13.44,5.09-1.43-.99-1.22-10.34-1.16-12.34,0-.25.1-.47.26-.65.59-.64,2.15-2.34,3.99-4.32,4.74-5.09,6.64-12.2,5.08-18.98-.31-1.32-.56-2.5-.71-3.34-.45-2.55-3.51-8.57-6.21-11.01-4.75-4.28-5.88-3.14-5.88-3.14"/>
  <rect class="st0" x="90.56" y="83.5" width="345.25" height="277.59" rx="41.86" ry="41.86"/>
  <path class="st0" d="M391.79,83.5H125.06c-19.06,0-34.51,15.45-34.51,34.51v23.61h345.25l.28-11.36c-.19-35.14-17.59-46.76-44.3-46.76Z"/>
  <rect class="st0" x="104.52" y="156.67" width="106.41" height="79.45"/>
  <rect class="st0" x="271.94" y="281.9" width="120.58" height="58.99"/>
  <path class="st0" d="M236.58,194.1c3.27-.58,22.93-3.47,35.65,0s12.72-17.35,21.98-9.25,3.47,11.2,19.66,9.65,15.61,6.95,30.07.39,5.78,4.67,18.51,2.52,30.65-14.91,33.54-7.08"/>
  <path class="st0" d="M250,212.19c10.09-1.16,16.45-1.73,30.33,0s-8.1,4.63,20.82,0-9.63-8.3,15.14,2.5,19.56-4.55,38.07-3.52,20.78,18.56,26.6,4.49c1.8-4.34,14.46-2.89,20.82-2.31"/>
  <rect class="st0" x="292.49" y="234.61" width="66.8" height="18.15" rx="9.07" ry="9.07"/>
  <circle class="st0" cx="118.4" cy="109.25" r="8.1"/>
  <circle class="st0" cx="139.3" cy="109.25" r="8.1"/>
  <circle class="st0" cx="160.2" cy="109.25" r="8.1"/>
  <path class="st0" d="M114.06,289.68c6.07-.29,10.57-9.83,17.14-4.63s6.73-7.44,16.19-1.55,16.73,9.36,20.9,6.18.7.58,11.11,0,10.7-1.16,18.51,0"/>
  <path class="st0" d="M118.4,302.98c19.66,0,8.39-6.07,19.66,0s6.4-.29,14.04,0,5.33,1.8,12.85,2.64-1.16,4.01,7.52.83,10.41-8.54,17.35-2.39,0,3.14,8.1,3.78"/>
  <polyline class="st0" points="341.34 239.02 391.94 247.02 376.28 254.55 409.3 270.91 403.6 281.9 370.07 261.76 365.61 278.92 341.34 239.02"/>
  <path class="st0" d="M82.74,127.21s-20.34-44.24,10.41-48.19c16.91-2.17,23.97,4.46,26.89,10.87,2.14,4.7,2.3,10.05.74,14.98-2.18,6.91-7.37,19.86-17.23,26.98"/>
  <path class="st0" d="M88.14,128.36l4.24-19.28s-5.69-3.95-5.98-1.35,18.12,4.05,18.12,4.05c0,0-.1-2.99-3.08-2.89s-5.98,21.14-5.98,21.14"/>
  <path class="st0" d="M86.86,148.84l5.58.89c3.99.63,7.78-1.97,8.63-5.92l2.54-11.9-20.82-4.63-2.51,12c-.94,4.48,2.06,8.84,6.59,9.56Z"/>
  <line class="st0" x1="56.42" y1="74.39" x2="69.15" y2="82.79"/>
  <line class="st0" x1="95.46" y1="53.42" x2="95.46" y2="66.33"/>
  <line class="st0" x1="125.69" y1="72.5" x2="136.72" y2="61.32"/>
</svg>