<?xml version="1.0" encoding="UTF-8"?>
<svg xmlns="http://www.w3.org/2000/svg" version="1.1" viewBox="0 0 500 500">
  <!-- Generator: Adobe Illustrator 29.3.1, SVG Export Plug-In . SVG Version: 2.1.0 Build 151)  -->
  <defs>
    <style>
      .st0 {
        fill: #fff;
        stroke: #000;
        stroke-miterlimit: 10;
      }
    </style>
  </defs>
  <g id="Calque_1">
    <g id="Calque_4">
      <path class="st0" d="M119.07,301.31l-6.18,6.02c-3.07,2.99-4.93,7-5.25,11.27l-5.34,73.42c-.46,6.25,4.25,11.69,10.5,12.14l31.88,2.29c3.94.28,7.39-2.65,7.73-6.59l6.79-77.4c.32-3.63-.49-7.27-2.3-10.43l-5.25-9.12-32.59-1.61"/>
      <polygon class="st0" points="124.69 268.62 123.72 278.75 136.36 279.94 137.48 269.02 124.69 268.62"/>
      <polyline class="st0" points="123.55 294.47 124.59 278.85 134.94 279.82 133.72 295.37"/>
      <path class="st0" d="M130.01,241.22s17.64,27.4,6.57,27.19c-7.64-.14-11.05.9-12.86-1.12-1.53-1.71-1.95-4.93-1.22-7.1l7.51-18.97Z"/>
      <polygon class="st0" points="147.65 282.33 141.29 295.87 151.66 296.55 156.33 284.35 147.65 282.33"/>
      <polygon class="st0" points="150.54 271.34 146.06 281.89 157.18 284.6 161.39 274.28 150.54 271.34"/>
      <path class="st0" d="M160.99,250.13s10.51,14.89-.39,24.15l-9.06-2.89s-1.98-7.66,2.89-11.47l6.55-9.78Z"/>
    </g>
    <path class="st0" d="M321.5,300.44l25.2,139.55c.12.66.75,1.11,1.42,1l20.62-3.44c.71-.12,1.17-.81.99-1.51l-31.92-129.97c-.09-.37-.35-.68-.7-.83l-13.9-6.14c-.9-.4-1.89.37-1.71,1.35Z"/>
    <polyline class="st0" points="381.19 154.46 345.62 357.45 363.91 348.91 398.54 146.65"/>
    <polygon class="st0" points="345.62 357.45 176.47 302.79 199.89 102.41 381.19 154.46 345.62 357.45"/>
    <polygon class="st0" points="199.89 102.41 381.19 154.46 398.54 146.65 220.1 95.43 199.89 102.41"/>
  </g>
  <g id="Calque_2">
    <g id="Calque_3">
      <polyline class="st0" points="301.24 135.28 329 119.23 315.12 111.42 301.24 119.23 284.75 111.42 253.53 119.23 301.24 135.28"/>
      <polygon class="st0" points="286.49 51.57 307.31 57.64 321.19 51.57 302.78 45.69 286.49 51.57"/>
      <polygon class="st0" points="321.19 51.57 315.12 111.42 301.24 119.23 284.75 111.42 286.49 51.57 307.31 57.64 321.19 51.57"/>
      <polygon class="st0" points="225.19 303.04 218.15 320.12 264.97 335.06 270.68 315.97 225.19 303.04"/>
      <polygon class="st0" points="301.24 135.28 296.47 151.95 249.26 134.33 253.53 119.23 301.24 135.28"/>
    </g>
    <polygon class="st0" points="184.46 305.38 204.7 312.11 156.7 439.31 137.39 429.96 184.46 305.38"/>
    <polygon class="st0" points="289.62 338.98 309.39 345.4 267.07 474.94 244.42 468.38 289.62 338.98"/>
    <polygon class="st0" points="237.16 326.19 211.9 395.48 220.19 400.02 244.92 328.66 237.16 326.19"/>
    <polyline class="st0" points="190.03 350.91 274.68 381.75 272.06 389.23 187.9 356.71"/>
    <path class="st0" d="M116.72,297.65v1.19c0,1.32,1.04,2.41,2.35,2.47l32.59,1.61c1.34.07,2.46-1,2.46-2.34v-1.4c0-1.39-1.08-2.54-2.46-2.63l-31.55-2.07c-1.83-.12-3.39,1.33-3.39,3.17Z"/>
  </g>
</svg>